<svg version="1.1" id="Layer_1" xmlns="http://www.w3.org/2000/svg" xmlns:xlink="http://www.w3.org/1999/xlink" x="0px" y="0px"
	 width="100%" viewBox="0 0 1254 1254" enable-background="new 0 0 1254 1254" xml:space="preserve">
<path fill="#010000" opacity="1.000000" stroke="none" 
	d="
M1025.972168,786.114563 
	C1026.987305,781.164673 1029.061279,776.159729 1028.807129,771.275940 
	C1028.194580,759.502991 1026.795288,747.743469 1025.127563,736.062195 
	C1023.958008,727.869690 1023.213440,719.179810 1019.850769,711.821838 
	C1010.979675,692.411072 999.598511,674.374084 985.693787,658.034790 
	C984.797974,656.982117 984.163391,655.025513 984.464539,653.736389 
	C990.404236,628.305481 977.098816,611.126648 959.308716,595.236206 
	C955.312012,591.718079 951.596985,587.793945 947.250977,584.779480 
	C941.125977,580.531189 934.869873,583.894470 928.636719,585.377747 
	C924.208435,586.431580 925.110962,589.981689 924.902771,592.097229 
	C916.663208,586.432495 908.931824,579.993225 900.226624,575.399353 
	C887.640503,568.757385 874.559082,568.031494 862.894775,577.997559 
	C856.092224,583.809753 849.372559,589.833923 843.380676,596.455017 
	C832.466492,608.515137 822.121765,621.090637 811.565979,633.420105 
	C817.754944,641.522034 823.588562,649.158691 829.422180,656.795410 
	C823.226868,653.748413 819.547913,657.583191 815.728821,661.118652 
	C794.336548,680.921875 772.906311,700.684143 751.570679,720.548096 
	C750.196045,721.827881 749.145935,723.725342 748.553955,725.534851 
	C742.856689,742.949585 737.367004,760.432556 731.613037,777.828186 
	C730.618774,780.834229 730.928528,783.054993 732.633301,785.681396 
	C752.483582,816.264587 772.202393,846.933228 792.057129,877.513611 
	C793.039001,879.026001 794.773193,880.509766 796.458862,881.031067 
	C807.734741,884.518433 819.060181,887.861145 830.455322,890.932190 
	C832.393616,891.454590 835.088501,891.045898 836.851318,890.043274 
	C849.720642,882.723083 862.473816,875.196045 875.196960,867.622375 
	C883.495972,862.682312 891.683411,857.554626 900.518066,852.145264 
	C891.246643,848.431702 882.815857,845.054871 874.385071,841.678040 
	C874.393677,841.269897 874.402283,840.861816 874.410889,840.453674 
	C921.153992,835.341248 967.897095,830.228821 1014.537598,825.893127 
	C1012.393433,830.754517 1010.410645,835.694763 1008.078735,840.464294 
	C993.774475,869.721497 979.405090,898.946899 964.996887,928.153137 
	C964.209839,929.748596 963.175842,931.529663 961.755859,932.458557 
	C945.354309,943.188110 928.855896,953.769775 911.885376,963.920105 
	C911.706909,963.777710 911.528442,963.635254 911.533508,962.810913 
	C913.598083,959.060059 915.662659,955.309204 917.314636,952.307983 
	C887.510620,953.516418 857.636597,954.727722 827.762634,955.938965 
	C827.716492,956.121216 827.670349,956.303406 827.624268,956.485596 
	C851.592163,959.842896 875.559998,963.200195 899.871460,966.605591 
	C894.814514,972.260315 889.675415,978.006775 884.250122,984.073364 
	C885.243774,984.073364 885.728882,984.175720 886.153687,984.058777 
	C915.074158,976.100281 943.545715,966.826599 971.025635,954.719238 
	C972.663330,953.997681 974.192383,952.265686 975.033264,950.625305 
	C979.889526,941.151917 985.229065,931.841614 989.105469,921.966003 
	C1002.713135,887.299011 1015.796753,852.426270 1029.066650,817.626831 
	C1031.627930,810.910156 1029.503052,807.547546 1021.761169,805.993958 
	C1021.761169,805.993958 1021.822876,805.852112 1021.739563,805.450562 
	C1021.578857,805.208923 1021.356262,805.059448 1020.992371,804.974548 
	C1020.992371,804.974548 1021.021057,804.895508 1021.035767,804.108643 
	C1020.967224,799.621155 1018.456421,799.553162 1015.018738,800.560303 
	C1013.725464,800.939209 1011.931152,800.988525 1010.820312,800.370422 
	C1005.974548,797.674255 1005.896973,796.773621 1009.813538,790.241638 
	C1012.209656,790.483948 1014.605774,790.726257 1017.024780,791.748779 
	C1018.616089,796.587463 1022.682739,795.586243 1025.553467,794.385803 
	C1029.723267,792.642273 1026.696533,789.449707 1025.972168,786.114563 
M650.569336,171.894196 
	C622.578552,162.240158 593.877014,155.516479 564.443542,151.299240 
	C579.958557,162.190231 595.473511,173.081238 610.988525,183.972229 
	C570.057556,181.425812 529.620056,181.122330 488.175812,185.014938 
	C504.113434,193.965973 519.100037,202.382858 534.086609,210.799744 
	C520.197266,213.960541 506.578217,215.734528 493.067017,218.119308 
	C481.144440,220.223709 468.687286,221.384064 457.626160,225.840439 
	C436.062317,234.528168 415.243896,245.092209 394.253021,255.163300 
	C385.656982,259.287567 377.414307,264.148438 367.918579,269.262482 
	C380.078339,271.928009 390.964081,274.314240 402.620941,276.869507 
	C400.332550,278.664246 398.756958,279.853943 397.230560,281.103760 
	C358.181549,313.077484 319.099304,345.010986 280.174866,377.135681 
	C277.430756,379.400421 274.706848,382.811188 273.916260,386.149200 
	C265.363556,422.260254 257.138672,458.449738 249.042618,494.666626 
	C248.362915,497.707184 248.559998,501.335419 249.545517,504.292023 
	C255.277054,521.486755 261.420959,538.543640 267.255737,555.704834 
	C267.882782,557.549133 268.103790,560.074158 267.347260,561.760254 
	C261.356842,575.110840 255.160065,588.371277 248.819565,601.559814 
	C247.803604,603.673157 246.076447,605.769348 244.137985,607.066101 
	C210.930313,629.279907 177.635376,651.363220 144.368210,673.488159 
	C142.010422,675.056213 139.719269,676.724487 136.881592,678.706177 
	C169.496445,687.179565 201.234482,695.360474 232.914780,703.759277 
	C235.964081,704.567688 239.084167,706.245483 241.444916,708.338989 
	C265.123047,729.336548 288.635742,750.520508 312.253815,771.585999 
	C313.535950,772.729553 315.340729,773.287048 317.284180,774.699585 
	C320.796722,778.161743 323.697571,781.926880 329.418121,782.761597 
	C340.272278,784.345520 350.993225,786.888367 361.720306,789.255859 
	C363.680756,789.688538 365.788757,790.807983 367.186340,792.238037 
	C407.114319,833.096863 446.940308,874.055359 486.841064,914.940796 
	C492.621368,920.863770 498.696014,926.499451 504.320709,931.963318 
	C506.711060,929.700256 509.065765,927.470947 511.586334,925.084595 
	C509.779755,923.142761 508.009033,921.163574 506.158630,919.261780 
	C463.412750,875.328796 420.573730,831.485840 378.010376,787.376770 
	C372.579956,781.749084 367.199982,777.899841 359.107239,777.088440 
	C344.722046,775.646118 330.439240,773.182251 315.563416,770.715088 
	C314.087677,768.949768 312.619934,767.177734 311.134979,765.420227 
	C293.400360,744.429871 275.276550,723.751587 258.096619,702.316772 
	C250.022461,692.242981 241.096817,684.986511 227.996140,683.725281 
	C227.179565,683.646667 226.388779,683.308899 225.583801,683.100220 
	C211.154617,679.361328 196.725098,675.623779 181.528946,671.687317 
	C182.827301,670.764221 183.450562,670.295593 184.098557,669.864197 
	C205.151794,655.846130 225.836227,641.223389 247.409866,628.057800 
	C259.262878,620.824280 267.204712,611.818115 271.427673,598.680115 
	C273.990997,590.705322 278.166473,583.248657 281.802826,575.146790 
	C286.110748,577.931091 289.845886,580.345215 294.129822,583.113953 
	C293.496246,581.027832 293.079102,579.465637 292.550598,577.942139 
	C283.552399,552.002991 274.468048,526.093201 265.636566,500.097443 
	C264.689819,497.310730 264.463959,493.854462 265.143921,491.004730 
	C272.866333,458.640198 280.782593,426.321411 288.829132,394.035767 
	C289.413696,391.690277 290.956573,389.131927 292.822754,387.624023 
	C333.235413,354.969177 373.741577,322.429932 414.273621,289.923096 
	C421.366547,284.234528 428.656952,278.792145 436.640839,272.630463 
	C426.879333,270.561432 418.134949,268.707977 408.371796,266.638580 
	C410.156097,265.718842 410.986816,265.230103 411.863861,264.847565 
	C427.860138,257.869934 443.847931,250.872391 459.871399,243.957703 
	C464.598083,241.917999 469.273041,239.343307 474.239227,238.345551 
	C496.069763,233.959564 518.004089,230.092377 539.888428,225.971283 
	C549.270142,224.204575 558.621704,222.277374 568.916626,220.239029 
	C561.713867,213.153854 555.250916,206.796371 548.180054,199.840942 
	C553.571594,200.612473 558.100159,201.260513 563.261963,202.106033 
	C620.791077,215.361893 678.321777,228.610794 735.841553,241.907196 
	C737.565125,242.305634 739.424866,242.871201 740.798035,243.915314 
	C759.628174,258.233215 778.382935,272.650360 797.158142,287.040558 
	C806.358215,294.091919 815.562256,301.138000 825.612427,308.835938 
	C824.232300,298.105560 823.004028,288.555634 821.604370,277.673279 
	C827.541504,282.511017 832.351135,286.308624 837.027710,290.263519 
	C850.852478,301.954773 865.733826,312.440033 876.287659,327.687653 
	C894.773560,354.395264 913.679749,380.812012 932.410400,407.350250 
	C933.318970,408.637512 934.232910,409.921021 935.144348,411.206268 
	C935.742310,409.847443 935.606689,408.895721 935.242432,408.041443 
	C923.163025,379.711395 910.763184,351.513092 899.085815,323.018585 
	C892.972534,308.101196 883.166809,296.323730 871.513367,285.681213 
	C848.466919,264.634064 823.669067,245.829880 798.019531,228.113007 
	C792.965881,224.622253 787.801575,221.291748 781.779541,217.282242 
	C787.167053,229.605621 792.025879,240.719666 796.884705,251.833710 
	C796.508728,252.065994 796.132812,252.298294 795.756836,252.530579 
	C785.113770,243.242432 774.410156,234.022507 763.843994,224.647705 
	C752.454468,214.542419 740.561462,204.720001 726.454773,199.165878 
	C701.724609,189.429077 676.387207,181.234665 650.569336,171.894196 
M989.280273,452.239410 
	C982.765869,445.344208 976.377136,438.321564 969.626465,431.665955 
	C968.344116,430.401703 965.355469,429.714447 963.619568,430.255188 
	C953.949951,433.267365 944.367065,436.586914 934.865356,440.100983 
	C926.567383,443.169861 926.632141,443.344940 926.791016,452.411377 
	C923.384155,448.325531 920.495178,444.255219 916.984314,440.820709 
	C913.484253,437.396881 909.820496,433.365723 905.436035,431.746002 
	C876.133118,420.920746 846.606140,410.703613 817.176086,400.221039 
	C792.549438,391.449371 767.281250,385.127747 740.397583,379.709198 
	C749.290710,386.731842 757.190247,392.969879 765.577393,399.593048 
	C739.256470,409.182922 713.632080,418.518951 686.704224,428.329956 
	C693.119751,429.248444 698.050659,429.954407 703.680481,430.760437 
	C702.553284,432.023071 702.018372,432.616760 701.489319,433.215576 
	C683.626465,453.433960 665.817261,473.700409 647.834839,493.811890 
	C645.566528,496.348694 645.551880,498.241699 646.804077,501.215820 
	C657.504272,526.629822 667.972107,552.141602 678.659973,577.560913 
	C679.560364,579.702271 681.188782,581.944763 683.098267,583.192566 
	C705.666321,597.939331 728.305908,612.578796 751.088440,626.990967 
	C753.080811,628.251404 756.405396,628.459106 758.781311,627.856140 
	C765.047546,626.265808 771.082397,623.788940 777.300537,621.978394 
	C787.169556,619.104797 796.137146,615.006775 803.263794,607.141174 
	C807.712891,602.230774 813.199219,598.275635 818.023560,593.685303 
	C822.478149,589.446655 826.670532,584.932434 831.574524,579.931763 
	C827.020874,580.152466 823.393250,580.414429 819.761841,580.490173 
	C795.694214,580.992188 772.490112,578.097656 752.570129,562.858032 
	C748.029114,559.383972 744.218384,553.984070 739.161011,552.425842 
	C733.975586,550.828186 727.677979,553.043945 721.858032,553.169678 
	C720.257324,553.204285 717.936829,552.171509 717.114075,550.882996 
	C710.310059,540.228271 703.780640,529.398315 697.227051,518.717529 
	C697.489136,518.223999 697.581726,517.866089 697.808716,517.648254 
	C721.639221,494.771484 748.225037,475.861145 777.847412,461.114014 
	C785.175415,457.465851 792.237488,457.051117 799.965149,458.316895 
	C841.892334,465.184357 883.334290,473.816742 923.350403,491.397705 
	C925.399353,481.985138 927.421326,472.696594 929.443298,463.408051 
	C929.852844,463.307922 930.262329,463.207764 930.671875,463.107635 
	C933.513794,475.255920 936.355713,487.404175 939.231934,499.698883 
	C939.791260,499.512085 940.548828,499.220001 941.327637,499.004669 
	C955.255981,495.153564 969.196655,491.346710 983.110596,487.444305 
	C986.743347,486.425476 989.061218,487.503540 990.697327,490.922546 
	C993.320129,496.403564 996.195740,501.763702 998.870789,507.663666 
	C988.585999,527.984558 978.301208,548.305359 968.016418,568.626221 
	C969.649536,568.615906 970.496216,568.113464 971.049683,567.387512 
	C981.839050,553.234131 992.603882,539.061890 1003.333984,524.863586 
	C1004.014099,523.963562 1004.571716,522.869385 1004.845886,521.779846 
	C1007.926514,509.538452 1010.982788,497.290375 1013.909546,485.011627 
	C1014.218750,483.714325 1014.178650,481.784943 1013.425232,480.867767 
	C1005.628906,471.377258 997.652771,462.034485 989.280273,452.239410 
M439.930786,384.650055 
	C425.354156,378.560272 410.831085,372.335541 396.148773,366.512238 
	C393.674469,365.530884 390.164490,365.402832 387.723663,366.370422 
	C366.251038,374.882416 344.873871,383.641113 323.590485,392.616150 
	C321.355774,393.558502 318.985046,396.063904 318.234314,398.354431 
	C308.382050,428.415161 298.719604,458.539520 289.305634,488.740234 
	C288.349945,491.806091 288.540741,495.710724 289.508575,498.818451 
	C297.184875,523.467407 305.150513,548.026550 313.131653,572.579407 
	C313.717316,574.381226 314.807617,576.254639 316.186737,577.527649 
	C338.347412,597.982666 360.566833,618.374451 382.874817,638.668518 
	C384.474854,640.124084 386.784393,641.328979 388.899323,641.601746 
	C400.956207,643.156921 413.045898,644.479675 425.147247,645.644043 
	C426.919373,645.814575 429.076752,645.125183 430.607697,644.138428 
	C439.419312,638.458801 448.122589,632.608948 456.784821,626.702759 
	C457.873260,625.960754 459.307648,624.481140 459.221985,623.456909 
	C458.465363,614.408386 457.401184,605.385559 456.427368,596.349670 
	C446.199890,598.382080 436.794312,600.426453 427.310913,602.002747 
	C425.155060,602.361023 422.310699,601.713623 420.498230,600.479309 
	C410.594482,593.734558 401.255402,586.106140 391.066620,579.848999 
	C379.386658,572.676025 371.025024,563.442078 366.968903,550.220459 
	C364.757538,543.012146 359.288879,535.824097 359.863464,529.012878 
	C360.449280,522.068970 366.917816,515.734741 370.316040,508.888031 
	C375.411682,498.621490 383.151947,492.093262 394.244720,488.829559 
	C402.707916,486.339539 410.812805,482.631622 419.993469,479.114441 
	C411.906403,473.175537 404.695679,467.575073 397.175842,462.426086 
	C384.421844,453.693176 384.517456,454.161835 370.759888,461.163269 
	C360.063263,466.606903 351.883392,474.340118 346.957703,485.045593 
	C340.919769,498.168396 335.690826,511.663574 330.122559,525.002136 
	C329.678619,526.065552 329.315155,527.162598 328.487396,529.395569 
	C323.529755,514.399597 318.944977,500.666931 314.507904,486.886688 
	C314.094208,485.601898 314.308899,483.914246 314.749268,482.585052 
	C321.473663,462.289185 329.736237,442.667023 340.899445,424.372131 
	C341.829834,422.847321 343.563873,421.385223 345.238373,420.813751 
	C354.034546,417.811920 362.865875,414.868103 371.819489,412.390076 
	C376.896881,410.984772 382.656738,408.774994 387.375702,409.928467 
	C404.921387,414.217133 421.813538,420.437836 434.584625,434.253510 
	C449.489410,450.377380 460.661804,469.145813 472.275116,487.599426 
	C473.196350,489.063232 474.136230,490.515259 475.266022,492.283600 
	C482.366486,477.768188 489.108490,463.841278 496.015411,449.996674 
	C497.282501,447.456848 497.292480,445.728058 495.401031,443.368134 
	C484.672913,429.982849 474.007233,416.541199 463.628906,402.884216 
	C457.490234,394.806274 450.915924,387.575684 439.930786,384.650055 
M734.958130,973.619995 
	C744.507751,990.318115 754.057373,1007.016235 763.606934,1023.714355 
	C764.023743,1023.559570 764.440491,1023.404724 764.857300,1023.249878 
	C747.242920,974.564087 729.628479,925.878296 711.824280,876.667908 
	C709.499329,880.072083 707.564392,882.905151 705.586487,885.801147 
	C688.238953,878.399963 671.261902,871.186279 654.327148,863.874451 
	C653.014832,863.307861 651.911072,862.142761 650.859436,861.104736 
	C602.238525,813.109009 553.625488,765.105225 505.073120,717.040222 
	C503.743347,715.723816 502.723328,713.838684 502.171783,712.031738 
	C497.021545,695.158081 492.014435,678.240906 486.932220,661.346375 
	C486.557983,660.102356 485.922333,658.936951 485.408234,657.735046 
	C484.888397,657.876160 484.368530,658.017273 483.848694,658.158447 
	C484.260620,660.927307 484.719574,663.690063 485.076935,666.465942 
	C487.479950,685.133423 489.723907,703.823364 492.389130,722.453186 
	C492.818939,725.457520 494.475891,728.804810 496.605438,730.971619 
	C546.479614,781.718079 596.488159,832.332581 646.528870,882.915039 
	C648.116028,884.519409 650.177368,885.801331 652.235962,886.769104 
	C666.238342,893.351929 680.334412,899.736633 694.300903,906.393555 
	C696.226440,907.311279 698.088501,909.098816 699.161133,910.956543 
	C711.067993,931.577393 722.813293,952.291565 734.958130,973.619995 
M569.819641,477.499969 
	C569.804260,506.157562 569.844971,534.815430 569.705322,563.472473 
	C569.687073,567.222839 570.707947,569.885681 573.441406,572.608398 
	C601.768372,600.823853 629.956360,629.179016 658.132935,657.545105 
	C665.942200,665.406921 673.585144,673.434021 681.180786,681.257996 
	C684.247803,678.562500 686.458496,676.619568 688.798462,674.563049 
	C687.667114,673.298462 686.940857,672.404053 686.130920,671.593262 
	C651.518494,636.942810 616.872803,602.325439 582.358521,567.577515 
	C580.707458,565.915161 579.310425,563.111389 579.303589,560.834717 
	C579.131592,503.520935 579.197144,446.206421 579.029053,388.892609 
	C579.022278,386.597107 577.682129,383.776123 576.044128,382.095947 
	C557.902588,363.487732 539.625427,345.010406 521.220276,326.662933 
	C519.693665,325.141144 516.981750,324.104034 514.797424,324.062622 
	C502.140198,323.822845 489.474762,323.851746 476.814911,324.012146 
	C473.086334,324.059387 470.037567,323.897186 468.379059,319.739075 
	C467.791321,318.265594 465.870087,317.053436 464.283478,316.296692 
	C458.082489,313.339203 450.876190,315.836609 447.514282,321.891602 
	C444.262360,327.748444 446.232635,335.146088 452.062531,338.969055 
	C457.580902,342.587769 464.616547,341.185699 469.080536,335.961304 
	C470.268219,334.571320 472.419922,333.248657 474.159180,333.208740 
	C485.815857,332.941223 497.485992,332.834442 509.138947,333.149109 
	C511.773529,333.220245 515.004211,334.502472 516.864197,336.338104 
	C533.700989,352.954865 550.350403,369.763580 566.869263,386.697021 
	C568.483826,388.352173 569.662354,391.215332 569.678833,393.527496 
	C569.875916,421.183899 569.814575,448.842163 569.819641,477.499969 
M597.337097,940.802795 
	C597.373352,938.803711 597.235352,936.783081 597.478394,934.809509 
	C598.221619,928.773926 596.274536,924.269775 591.741516,919.882263 
	C576.660706,905.285583 562.085449,890.167175 547.266663,875.298340 
	C545.376709,873.401917 544.463562,871.824219 545.381104,868.813232 
	C546.928467,863.735107 546.392212,858.573669 543.112061,854.031555 
	C538.012329,846.969727 528.886292,844.636169 521.329102,848.471069 
	C513.877014,852.252625 510.260559,861.532837 512.984070,869.885193 
	C515.634033,878.011902 523.792847,882.710815 532.939941,880.765686 
	C535.999146,880.115112 537.805603,880.658569 539.886841,882.783752 
	C554.455322,897.659912 569.085022,912.477173 583.821228,927.187012 
	C586.123779,929.485413 587.063354,931.774292 587.049866,935.040100 
	C586.932007,963.530823 586.991211,992.022339 586.997681,1020.513611 
	C586.998108,1022.271851 586.997681,1024.030029 586.997681,1025.803467 
	C590.839722,1025.803467 593.933777,1025.803467 597.297119,1025.803467 
	C597.297119,997.582214 597.297119,969.630432 597.337097,940.802795 
M438.598236,564.900940 
	C443.189972,569.076538 447.781708,573.252136 452.373474,577.427734 
	C450.721161,566.121643 448.414215,555.418701 445.655396,544.833496 
	C444.796021,541.536316 445.355499,539.245850 447.342010,536.642761 
	C452.669342,529.661804 457.736328,522.482178 462.989532,515.267700 
	C457.726837,508.814911 452.631622,502.567474 447.248535,495.967072 
	C435.340759,508.383575 422.878235,519.514282 416.789673,535.688232 
	C415.761719,538.418945 415.843445,540.279114 417.799286,542.375610 
	C424.610352,549.676514 431.325043,557.067322 438.598236,564.900940 
M765.952148,527.173340 
	C781.902283,520.788879 798.277039,517.954651 815.247986,522.069885 
	C818.240784,522.795654 821.532776,524.629761 823.453247,526.965881 
	C827.951660,532.437866 831.702087,538.524719 835.755310,544.362610 
	C833.335327,535.135498 830.382141,526.048401 826.909668,517.164246 
	C826.141418,515.198669 823.784546,513.149414 821.733582,512.515625 
	C814.129211,510.165558 806.414062,508.041656 798.604370,506.541992 
	C794.474548,505.748932 789.648376,505.259155 785.849304,506.620880 
	C765.311829,513.982117 748.809204,527.503418 733.412170,542.546082 
	C744.017517,537.516479 754.622864,532.486938 765.952148,527.173340 
M788.826050,567.619507 
	C781.886108,557.636841 781.601013,546.997559 786.201904,535.448547 
	C773.708801,536.587952 762.922363,540.353455 753.213318,548.043762 
	C762.705750,561.403992 775.848877,567.551636 791.551758,571.299438 
	C790.401978,569.794739 789.814026,569.025330 788.826050,567.619507 
M818.807007,559.335144 
	C816.752502,564.135620 814.697937,568.936096 812.617249,573.797791 
	C817.695679,574.315430 823.141052,574.870422 829.069763,575.474731 
	C825.846558,568.525574 822.890015,562.151367 819.933472,555.777161 
	C819.651550,555.898987 819.369690,556.020813 819.087769,556.142700 
	C819.025391,556.965271 818.963074,557.787842 818.807007,559.335144 
M801.716980,548.844971 
	C805.164062,548.854004 807.423340,546.994690 806.967041,543.720642 
	C806.677124,541.640503 804.950684,539.193237 803.148254,538.119263 
	C802.178650,537.541504 798.955078,539.032898 798.040649,540.434021 
	C796.158936,543.317200 797.272461,546.168640 800.110291,548.190552 
	C800.378967,548.381958 800.695984,548.505493 801.716980,548.844971 
z"/>
<path fill="#FCFBFC" opacity="1.000000" stroke="none" 
	d="
M1017.001892,790.968567 
	C1014.605774,790.726257 1012.209656,790.483948 1008.966187,790.213745 
	C998.786133,790.560669 989.434387,790.677551 980.124512,791.362183 
	C958.702820,792.937317 937.320190,795.082825 915.887085,796.454468 
	C888.276001,798.221497 860.985474,796.273560 834.395874,787.834717 
	C817.622070,782.511108 802.425964,774.239319 787.200684,763.635437 
	C789.895874,761.192566 792.150208,759.149292 794.404602,757.105957 
	C787.505920,758.239319 780.970825,760.028320 774.520752,762.084045 
	C773.616882,762.372070 772.590332,763.942200 772.542542,764.961975 
	C772.328918,769.517944 772.449646,774.089539 772.449646,778.655518 
	C772.890869,778.742004 773.332092,778.828430 773.773315,778.914917 
	C775.957153,776.564270 778.140930,774.213562 780.400879,771.781006 
	C797.151794,784.435730 815.043762,794.057922 834.865845,800.083801 
	C867.168762,809.903931 900.112000,809.953430 933.353333,807.547791 
	C957.429871,805.805420 981.558716,804.739624 1005.677063,803.658447 
	C1010.763062,803.430420 1015.904907,804.450500 1021.021057,804.895508 
	C1021.021057,804.895508 1020.992371,804.974548 1021.021179,805.235046 
	C1021.049988,805.495544 1021.333191,805.897888 1021.333191,805.897888 
	C1021.333191,805.897888 1021.822876,805.852112 1021.822876,805.852112 
	C1021.822876,805.852112 1021.761169,805.993958 1021.804932,806.431030 
	C1021.958252,808.739319 1022.764587,810.951599 1022.046814,812.417664 
	C1019.897766,816.807190 1017.152649,820.904846 1014.640198,825.116455 
	C967.897095,830.228821 921.153992,835.341248 874.410889,840.453674 
	C874.402283,840.861816 874.393677,841.269897 874.385071,841.678040 
	C882.815857,845.054871 891.246643,848.431702 900.518066,852.145264 
	C891.683411,857.554626 883.495972,862.682312 875.196960,867.622375 
	C862.473816,875.196045 849.720642,882.723083 836.851318,890.043274 
	C835.088501,891.045898 832.393616,891.454590 830.455322,890.932190 
	C819.060181,887.861145 807.734741,884.518433 796.458862,881.031067 
	C794.773193,880.509766 793.039001,879.026001 792.057129,877.513611 
	C772.202393,846.933228 752.483582,816.264587 732.633301,785.681396 
	C730.928528,783.054993 730.618774,780.834229 731.613037,777.828186 
	C737.367004,760.432556 742.856689,742.949585 748.553955,725.534851 
	C749.145935,723.725342 750.196045,721.827881 751.570679,720.548096 
	C772.906311,700.684143 794.336548,680.921875 815.728821,661.118652 
	C819.547913,657.583191 823.226868,653.748413 829.422180,656.795410 
	C823.588562,649.158691 817.754944,641.522034 811.565979,633.420105 
	C822.121765,621.090637 832.466492,608.515137 843.380676,596.455017 
	C849.372559,589.833923 856.092224,583.809753 862.894775,577.997559 
	C874.559082,568.031494 887.640503,568.757385 900.226624,575.399353 
	C908.931824,579.993225 916.663208,586.432495 924.902771,592.097229 
	C925.110962,589.981689 924.208435,586.431580 928.636719,585.377747 
	C934.869873,583.894470 941.125977,580.531189 947.250977,584.779480 
	C951.596985,587.793945 955.312012,591.718079 959.572388,595.817017 
	C962.799011,600.415405 965.763428,604.432068 968.724792,608.450928 
	C976.094849,618.453003 981.271667,629.339111 981.159302,642.033081 
	C981.108276,647.781921 980.209717,653.523254 979.800720,658.094055 
	C981.894714,659.739685 983.941895,660.762695 985.141174,662.404907 
	C988.277588,666.699768 991.184570,671.180237 993.930664,675.738708 
	C1002.185669,689.442322 1009.916260,703.437134 1014.002197,719.045105 
	C1020.104492,742.354919 1022.492249,766.171936 1022.882568,790.515869 
	C1020.759583,790.878113 1018.880737,790.923340 1017.001892,790.968567 
M937.162537,663.299377 
	C937.710632,662.385803 938.640137,661.514587 938.747253,660.551880 
	C939.716003,651.842407 937.901184,643.642395 933.696960,636.000427 
	C927.138123,624.078796 916.245667,617.023865 904.730042,610.839172 
	C890.081482,602.971802 883.846863,604.601501 874.255981,618.309509 
	C873.242065,619.758728 872.355713,621.297119 871.422974,622.773926 
	C879.365234,633.183533 888.745300,641.221802 900.324707,646.516541 
	C901.566345,647.084351 903.721191,647.143555 904.746643,646.427673 
	C908.401306,643.876343 911.560974,644.629639 914.800903,646.996704 
	C922.054443,652.296082 929.325317,657.571716 937.162537,663.299377 
M948.318665,628.982971 
	C945.314636,640.309692 950.198059,666.921936 956.173035,673.182373 
	C957.657349,666.221497 959.195679,659.007385 960.733948,651.793335 
	C963.270996,652.024597 965.073364,651.887390 965.928223,650.916138 
	C973.525574,642.284851 971.718567,624.093628 962.758240,616.667969 
	C960.443054,614.749268 958.125549,614.328796 956.278320,616.764832 
	C953.502930,620.424988 951.129578,624.390137 948.318665,628.982971 
z"/>
<path fill="#FBFBFB" opacity="1.000000" stroke="none" 
	d="
M998.964539,507.174896 
	C996.195740,501.763702 993.320129,496.403564 990.697327,490.922546 
	C989.061218,487.503540 986.743347,486.425476 983.110596,487.444305 
	C969.196655,491.346710 955.255981,495.153564 941.327637,499.004669 
	C940.548828,499.220001 939.791260,499.512085 939.231934,499.698883 
	C936.355713,487.404175 933.513794,475.255920 930.671875,463.107635 
	C930.262329,463.207764 929.852844,463.307922 929.443298,463.408051 
	C927.421326,472.696594 925.399353,481.985138 923.350403,491.397705 
	C883.334290,473.816742 841.892334,465.184357 799.965149,458.316895 
	C792.237488,457.051117 785.175415,457.465851 777.847412,461.114014 
	C748.225037,475.861145 721.639221,494.771484 697.808716,517.648254 
	C697.581726,517.866089 697.489136,518.223999 697.227051,518.717529 
	C703.780640,529.398315 710.310059,540.228271 717.114075,550.882996 
	C717.936829,552.171509 720.257324,553.204285 721.858032,553.169678 
	C727.677979,553.043945 733.975586,550.828186 739.161011,552.425842 
	C744.218384,553.984070 748.029114,559.383972 752.570129,562.858032 
	C772.490112,578.097656 795.694214,580.992188 819.761841,580.490173 
	C823.393250,580.414429 827.020874,580.152466 831.574524,579.931763 
	C826.670532,584.932434 822.478149,589.446655 818.023560,593.685303 
	C813.199219,598.275635 807.712891,602.230774 803.263794,607.141174 
	C796.137146,615.006775 787.169556,619.104797 777.300537,621.978394 
	C771.082397,623.788940 765.047546,626.265808 758.781311,627.856140 
	C756.405396,628.459106 753.080811,628.251404 751.088440,626.990967 
	C728.305908,612.578796 705.666321,597.939331 683.098267,583.192566 
	C681.188782,581.944763 679.560364,579.702271 678.659973,577.560913 
	C667.972107,552.141602 657.504272,526.629822 646.804077,501.215820 
	C645.551880,498.241699 645.566528,496.348694 647.834839,493.811890 
	C665.817261,473.700409 683.626465,453.433960 701.489319,433.215576 
	C702.018372,432.616760 702.553284,432.023071 703.680481,430.760437 
	C698.050659,429.954407 693.119751,429.248444 686.704224,428.329956 
	C713.632080,418.518951 739.256470,409.182922 765.577393,399.593048 
	C757.190247,392.969879 749.290710,386.731842 740.397583,379.709198 
	C767.281250,385.127747 792.549438,391.449371 817.176086,400.221039 
	C846.606140,410.703613 876.133118,420.920746 905.436035,431.746002 
	C909.820496,433.365723 913.484253,437.396881 916.984314,440.820709 
	C920.495178,444.255219 923.384155,448.325531 926.791016,452.411377 
	C926.632141,443.344940 926.567383,443.169861 934.865356,440.100983 
	C944.367065,436.586914 953.949951,433.267365 963.619568,430.255188 
	C965.355469,429.714447 968.344116,430.401703 969.626465,431.665955 
	C976.377136,438.321564 982.765869,445.344208 989.532471,452.837036 
	C994.511536,460.242554 998.994629,467.237976 1004.041687,473.799622 
	C1008.155212,479.147766 1009.357300,484.231537 1006.102966,490.492798 
	C1003.321411,495.844543 1001.314209,501.598694 998.964539,507.174896 
z"/>
<path fill="#FAFAFA" opacity="1.000000" stroke="none" 
	d="
M440.286499,384.787781 
	C450.915924,387.575684 457.490234,394.806274 463.628906,402.884216 
	C474.007233,416.541199 484.672913,429.982849 495.401031,443.368134 
	C497.292480,445.728058 497.282501,447.456848 496.015411,449.996674 
	C489.108490,463.841278 482.366486,477.768188 475.266022,492.283600 
	C474.136230,490.515259 473.196350,489.063232 472.275116,487.599426 
	C460.661804,469.145813 449.489410,450.377380 434.584625,434.253510 
	C421.813538,420.437836 404.921387,414.217133 387.375702,409.928467 
	C382.656738,408.774994 376.896881,410.984772 371.819489,412.390076 
	C362.865875,414.868103 354.034546,417.811920 345.238373,420.813751 
	C343.563873,421.385223 341.829834,422.847321 340.899445,424.372131 
	C329.736237,442.667023 321.473663,462.289185 314.749268,482.585052 
	C314.308899,483.914246 314.094208,485.601898 314.507904,486.886688 
	C318.944977,500.666931 323.529755,514.399597 328.487396,529.395569 
	C329.315155,527.162598 329.678619,526.065552 330.122559,525.002136 
	C335.690826,511.663574 340.919769,498.168396 346.957703,485.045593 
	C351.883392,474.340118 360.063263,466.606903 370.759888,461.163269 
	C384.517456,454.161835 384.421844,453.693176 397.175842,462.426086 
	C404.695679,467.575073 411.906403,473.175537 419.993469,479.114441 
	C410.812805,482.631622 402.707916,486.339539 394.244720,488.829559 
	C383.151947,492.093262 375.411682,498.621490 370.316040,508.888031 
	C366.917816,515.734741 360.449280,522.068970 359.863464,529.012878 
	C359.288879,535.824097 364.757538,543.012146 366.968903,550.220459 
	C371.025024,563.442078 379.386658,572.676025 391.066620,579.848999 
	C401.255402,586.106140 410.594482,593.734558 420.498230,600.479309 
	C422.310699,601.713623 425.155060,602.361023 427.310913,602.002747 
	C436.794312,600.426453 446.199890,598.382080 456.427368,596.349670 
	C457.401184,605.385559 458.465363,614.408386 459.221985,623.456909 
	C459.307648,624.481140 457.873260,625.960754 456.784821,626.702759 
	C448.122589,632.608948 439.419312,638.458801 430.607697,644.138428 
	C429.076752,645.125183 426.919373,645.814575 425.147247,645.644043 
	C413.045898,644.479675 400.956207,643.156921 388.899323,641.601746 
	C386.784393,641.328979 384.474854,640.124084 382.874817,638.668518 
	C360.566833,618.374451 338.347412,597.982666 316.186737,577.527649 
	C314.807617,576.254639 313.717316,574.381226 313.131653,572.579407 
	C305.150513,548.026550 297.184875,523.467407 289.508575,498.818451 
	C288.540741,495.710724 288.349945,491.806091 289.305634,488.740234 
	C298.719604,458.539520 308.382050,428.415161 318.234314,398.354431 
	C318.985046,396.063904 321.355774,393.558502 323.590485,392.616150 
	C344.873871,383.641113 366.251038,374.882416 387.723663,366.370422 
	C390.164490,365.402832 393.674469,365.530884 396.148773,366.512238 
	C410.831085,372.335541 425.354156,378.560272 440.286499,384.787781 
z"/>
<path fill="#02D3F6" opacity="1.000000" stroke="none" 
	d="
M562.628784,201.908539 
	C558.100159,201.260513 553.571594,200.612473 548.180054,199.840942 
	C555.250916,206.796371 561.713867,213.153854 568.916626,220.239029 
	C558.621704,222.277374 549.270142,224.204575 539.888428,225.971283 
	C518.004089,230.092377 496.069763,233.959564 474.239227,238.345551 
	C469.273041,239.343307 464.598083,241.917999 459.871399,243.957703 
	C443.847931,250.872391 427.860138,257.869934 411.863861,264.847565 
	C410.986816,265.230103 410.156097,265.718842 408.371796,266.638580 
	C418.134949,268.707977 426.879333,270.561432 436.640839,272.630463 
	C428.656952,278.792145 421.366547,284.234528 414.273621,289.923096 
	C373.741577,322.429932 333.235413,354.969177 292.822754,387.624023 
	C290.956573,389.131927 289.413696,391.690277 288.829132,394.035767 
	C280.782593,426.321411 272.866333,458.640198 265.143921,491.004730 
	C264.463959,493.854462 264.689819,497.310730 265.636566,500.097443 
	C274.468048,526.093201 283.552399,552.002991 292.550598,577.942139 
	C293.079102,579.465637 293.496246,581.027832 294.129822,583.113953 
	C289.845886,580.345215 286.110748,577.931091 281.802826,575.146790 
	C278.166473,583.248657 273.990997,590.705322 271.427673,598.680115 
	C267.204712,611.818115 259.262878,620.824280 247.409866,628.057800 
	C225.836227,641.223389 205.151794,655.846130 184.098557,669.864197 
	C183.450562,670.295593 182.827301,670.764221 181.528946,671.687317 
	C196.725098,675.623779 211.154617,679.361328 225.583801,683.100220 
	C226.388779,683.308899 227.179565,683.646667 227.996140,683.725281 
	C241.096817,684.986511 250.022461,692.242981 258.096619,702.316772 
	C275.276550,723.751587 293.400360,744.429871 311.134979,765.420227 
	C312.619934,767.177734 314.087677,768.949768 315.831421,771.257935 
	C316.367035,772.572937 316.634613,773.345154 316.902222,774.117371 
	C315.340729,773.287048 313.535950,772.729553 312.253815,771.585999 
	C288.635742,750.520508 265.123047,729.336548 241.444916,708.338989 
	C239.084167,706.245483 235.964081,704.567688 232.914780,703.759277 
	C201.234482,695.360474 169.496445,687.179565 136.881592,678.706177 
	C139.719269,676.724487 142.010422,675.056213 144.368210,673.488159 
	C177.635376,651.363220 210.930313,629.279907 244.137985,607.066101 
	C246.076447,605.769348 247.803604,603.673157 248.819565,601.559814 
	C255.160065,588.371277 261.356842,575.110840 267.347260,561.760254 
	C268.103790,560.074158 267.882782,557.549133 267.255737,555.704834 
	C261.420959,538.543640 255.277054,521.486755 249.545517,504.292023 
	C248.559998,501.335419 248.362915,497.707184 249.042618,494.666626 
	C257.138672,458.449738 265.363556,422.260254 273.916260,386.149200 
	C274.706848,382.811188 277.430756,379.400421 280.174866,377.135681 
	C319.099304,345.010986 358.181549,313.077484 397.230560,281.103760 
	C398.756958,279.853943 400.332550,278.664246 402.620941,276.869507 
	C390.964081,274.314240 380.078339,271.928009 367.918579,269.262482 
	C377.414307,264.148438 385.656982,259.287567 394.253021,255.163300 
	C415.243896,245.092209 436.062317,234.528168 457.626160,225.840439 
	C468.687286,221.384064 481.144440,220.223709 493.067017,218.119308 
	C506.578217,215.734528 520.197266,213.960541 534.086609,210.799744 
	C519.100037,202.382858 504.113434,193.965973 488.175812,185.014938 
	C529.620056,181.122330 570.057556,181.425812 610.988525,183.972229 
	C595.473511,173.081238 579.958557,162.190231 564.443542,151.299240 
	C593.877014,155.516479 622.578552,162.240158 650.350159,172.167328 
	C631.037415,168.215073 611.943848,163.989685 592.850342,159.764297 
	C592.811462,159.996658 592.772644,160.229019 592.733765,160.461395 
	C610.835999,171.974365 628.938293,183.487335 648.208435,195.743118 
	C612.055481,195.743118 577.612366,195.743118 543.169189,195.743118 
	C543.155273,196.021423 543.141296,196.299744 543.127319,196.578049 
	C549.627808,198.354874 556.128296,200.131714 562.628784,201.908539 
z"/>
<path fill="#F9FAFA" opacity="1.000000" stroke="none" 
	d="
M562.945374,202.007294 
	C556.128296,200.131714 549.627808,198.354874 543.127319,196.578049 
	C543.141296,196.299744 543.155273,196.021423 543.169189,195.743118 
	C577.612366,195.743118 612.055481,195.743118 648.208435,195.743118 
	C628.938293,183.487335 610.835999,171.974365 592.733765,160.461395 
	C592.772644,160.229019 592.811462,159.996658 592.850342,159.764297 
	C611.943848,163.989685 631.037415,168.215073 650.717590,172.417297 
	C676.387207,181.234665 701.724609,189.429077 726.454773,199.165878 
	C740.561462,204.720001 752.454468,214.542419 763.843994,224.647705 
	C774.410156,234.022507 785.113770,243.242432 795.756836,252.530579 
	C796.132812,252.298294 796.508728,252.065994 796.884705,251.833710 
	C792.025879,240.719666 787.167053,229.605621 781.779541,217.282242 
	C787.801575,221.291748 792.965881,224.622253 798.019531,228.113007 
	C823.669067,245.829880 848.466919,264.634064 871.513367,285.681213 
	C883.166809,296.323730 892.972534,308.101196 899.085815,323.018585 
	C910.763184,351.513092 923.163025,379.711395 935.242432,408.041443 
	C935.606689,408.895721 935.742310,409.847443 935.144348,411.206268 
	C934.232910,409.921021 933.318970,408.637512 932.410400,407.350250 
	C913.679749,380.812012 894.773560,354.395264 876.287659,327.687653 
	C865.733826,312.440033 850.852478,301.954773 837.027710,290.263519 
	C832.351135,286.308624 827.541504,282.511017 821.604370,277.673279 
	C823.004028,288.555634 824.232300,298.105560 825.612427,308.835938 
	C815.562256,301.138000 806.358215,294.091919 797.158142,287.040558 
	C778.382935,272.650360 759.628174,258.233215 740.798035,243.915314 
	C739.424866,242.871201 737.565125,242.305634 735.841553,241.907196 
	C678.321777,228.610794 620.791077,215.361893 562.945374,202.007294 
z"/>
<path fill="#F7F7F7" opacity="1.000000" stroke="none" 
	d="
M734.780212,973.300232 
	C722.813293,952.291565 711.067993,931.577393 699.161133,910.956543 
	C698.088501,909.098816 696.226440,907.311279 694.300903,906.393555 
	C680.334412,899.736633 666.238342,893.351929 652.235962,886.769104 
	C650.177368,885.801331 648.116028,884.519409 646.528870,882.915039 
	C596.488159,832.332581 546.479614,781.718079 496.605438,730.971619 
	C494.475891,728.804810 492.818939,725.457520 492.389130,722.453186 
	C489.723907,703.823364 487.479950,685.133423 485.076935,666.465942 
	C484.719574,663.690063 484.260620,660.927307 483.848694,658.158447 
	C484.368530,658.017273 484.888397,657.876160 485.408234,657.735046 
	C485.922333,658.936951 486.557983,660.102356 486.932220,661.346375 
	C492.014435,678.240906 497.021545,695.158081 502.171783,712.031738 
	C502.723328,713.838684 503.743347,715.723816 505.073120,717.040222 
	C553.625488,765.105225 602.238525,813.109009 650.859436,861.104736 
	C651.911072,862.142761 653.014832,863.307861 654.327148,863.874451 
	C671.261902,871.186279 688.238953,878.399963 705.586487,885.801147 
	C707.564392,882.905151 709.499329,880.072083 711.824280,876.667908 
	C729.628479,925.878296 747.242920,974.564087 764.857300,1023.249878 
	C764.440491,1023.404724 764.023743,1023.559570 763.606934,1023.714355 
	C754.057373,1007.016235 744.507751,990.318115 734.780212,973.300232 
z"/>
<path fill="#03D1F3" opacity="1.000000" stroke="none" 
	d="
M569.820251,476.999939 
	C569.814575,448.842163 569.875916,421.183899 569.678833,393.527496 
	C569.662354,391.215332 568.483826,388.352173 566.869263,386.697021 
	C550.350403,369.763580 533.700989,352.954865 516.864197,336.338104 
	C515.004211,334.502472 511.773529,333.220245 509.138947,333.149109 
	C497.485992,332.834442 485.815857,332.941223 474.159180,333.208740 
	C472.419922,333.248657 470.268219,334.571320 469.080536,335.961304 
	C464.616547,341.185699 457.580902,342.587769 452.062531,338.969055 
	C446.232635,335.146088 444.262360,327.748444 447.514282,321.891602 
	C450.876190,315.836609 458.082489,313.339203 464.283478,316.296692 
	C465.870087,317.053436 467.791321,318.265594 468.379059,319.739075 
	C470.037567,323.897186 473.086334,324.059387 476.814911,324.012146 
	C489.474762,323.851746 502.140198,323.822845 514.797424,324.062622 
	C516.981750,324.104034 519.693665,325.141144 521.220276,326.662933 
	C539.625427,345.010406 557.902588,363.487732 576.044128,382.095947 
	C577.682129,383.776123 579.022278,386.597107 579.029053,388.892609 
	C579.197144,446.206421 579.131592,503.520935 579.303589,560.834717 
	C579.310425,563.111389 580.707458,565.915161 582.358521,567.577515 
	C616.872803,602.325439 651.518494,636.942810 686.130920,671.593262 
	C686.940857,672.404053 687.667114,673.298462 688.798462,674.563049 
	C686.458496,676.619568 684.247803,678.562500 681.180786,681.257996 
	C673.585144,673.434021 665.942200,665.406921 658.132935,657.545105 
	C629.956360,629.179016 601.768372,600.823853 573.441406,572.608398 
	C570.707947,569.885681 569.687073,567.222839 569.705322,563.472473 
	C569.844971,534.815430 569.804260,506.157562 569.820251,476.999939 
M465.175079,328.391571 
	C465.311279,324.332306 463.044281,321.702118 459.332764,321.914429 
	C457.089050,322.042786 453.783569,324.111115 453.141907,326.036560 
	C452.486877,328.002167 453.821167,331.592682 455.504791,333.166779 
	C458.602020,336.062622 462.671509,334.105347 465.175079,328.391571 
z"/>
<path fill="#F11D7A" opacity="1.000000" stroke="none" 
	d="
M1014.588867,825.504761 
	C1017.152649,820.904846 1019.897766,816.807190 1022.046814,812.417664 
	C1022.764587,810.951599 1021.958252,808.739319 1021.855225,806.489868 
	C1029.503052,807.547546 1031.627930,810.910156 1029.066650,817.626831 
	C1015.796753,852.426270 1002.713135,887.299011 989.105469,921.966003 
	C985.229065,931.841614 979.889526,941.151917 975.033264,950.625305 
	C974.192383,952.265686 972.663330,953.997681 971.025635,954.719238 
	C943.545715,966.826599 915.074158,976.100281 886.153687,984.058777 
	C885.728882,984.175720 885.243774,984.073364 884.250122,984.073364 
	C889.675415,978.006775 894.814514,972.260315 899.871460,966.605591 
	C875.559998,963.200195 851.592163,959.842896 827.624268,956.485596 
	C827.670349,956.303406 827.716492,956.121216 827.762634,955.938965 
	C857.636597,954.727722 887.510620,953.516418 917.314636,952.307983 
	C915.662659,955.309204 913.598083,959.060059 911.279968,963.396362 
	C911.478699,964.118103 911.930969,964.254395 912.383240,964.390625 
	C928.855896,953.769775 945.354309,943.188110 961.755859,932.458557 
	C963.175842,931.529663 964.209839,929.748596 964.996887,928.153137 
	C979.405090,898.946899 993.774475,869.721497 1008.078735,840.464294 
	C1010.410645,835.694763 1012.393433,830.754517 1014.588867,825.504761 
z"/>
<path fill="#0C0B0B" opacity="1.000000" stroke="none" 
	d="
M1021.028442,804.502075 
	C1015.904907,804.450500 1010.763062,803.430420 1005.677063,803.658447 
	C981.558716,804.739624 957.429871,805.805420 933.353333,807.547791 
	C900.112000,809.953430 867.168762,809.903931 834.865845,800.083801 
	C815.043762,794.057922 797.151794,784.435730 780.400879,771.781006 
	C778.140930,774.213562 775.957153,776.564270 773.773315,778.914917 
	C773.332092,778.828430 772.890869,778.742004 772.449646,778.655518 
	C772.449646,774.089539 772.328918,769.517944 772.542542,764.961975 
	C772.590332,763.942200 773.616882,762.372070 774.520752,762.084045 
	C780.970825,760.028320 787.505920,758.239319 794.404602,757.105957 
	C792.150208,759.149292 789.895874,761.192566 787.200684,763.635437 
	C802.425964,774.239319 817.622070,782.511108 834.395874,787.834717 
	C860.985474,796.273560 888.276001,798.221497 915.887085,796.454468 
	C937.320190,795.082825 958.702820,792.937317 980.124512,791.362183 
	C989.434387,790.677551 998.786133,790.560669 1008.572510,790.316833 
	C1005.896973,796.773621 1005.974548,797.674255 1010.820312,800.370422 
	C1011.931152,800.988525 1013.725464,800.939209 1015.018738,800.560303 
	C1018.456421,799.553162 1020.967224,799.621155 1021.028442,804.502075 
z"/>
<path fill="#EE1C77" opacity="1.000000" stroke="none" 
	d="
M317.093201,774.408447 
	C316.634613,773.345154 316.367035,772.572937 316.106537,771.473267 
	C330.439240,773.182251 344.722046,775.646118 359.107239,777.088440 
	C367.199982,777.899841 372.579956,781.749084 378.010376,787.376770 
	C420.573730,831.485840 463.412750,875.328796 506.158630,919.261780 
	C508.009033,921.163574 509.779755,923.142761 511.586334,925.084595 
	C509.065765,927.470947 506.711060,929.700256 504.320709,931.963318 
	C498.696014,926.499451 492.621368,920.863770 486.841064,914.940796 
	C446.940308,874.055359 407.114319,833.096863 367.186340,792.238037 
	C365.788757,790.807983 363.680756,789.688538 361.720306,789.255859 
	C350.993225,786.888367 340.272278,784.345520 329.418121,782.761597 
	C323.697571,781.926880 320.796722,778.161743 317.093201,774.408447 
z"/>
<path fill="#F01B77" opacity="1.000000" stroke="none" 
	d="
M597.317139,941.240723 
	C597.297119,969.630432 597.297119,997.582214 597.297119,1025.803467 
	C593.933777,1025.803467 590.839722,1025.803467 586.997681,1025.803467 
	C586.997681,1024.030029 586.998108,1022.271851 586.997681,1020.513611 
	C586.991211,992.022339 586.932007,963.530823 587.049866,935.040100 
	C587.063354,931.774292 586.123779,929.485413 583.821228,927.187012 
	C569.085022,912.477173 554.455322,897.659912 539.886841,882.783752 
	C537.805603,880.658569 535.999146,880.115112 532.939941,880.765686 
	C523.792847,882.710815 515.634033,878.011902 512.984070,869.885193 
	C510.260559,861.532837 513.877014,852.252625 521.329102,848.471069 
	C528.886292,844.636169 538.012329,846.969727 543.112061,854.031555 
	C546.392212,858.573669 546.928467,863.735107 545.381104,868.813232 
	C544.463562,871.824219 545.376709,873.401917 547.266663,875.298340 
	C562.085449,890.167175 576.660706,905.285583 591.741516,919.882263 
	C596.274536,924.269775 598.221619,928.773926 597.478394,934.809509 
	C597.235352,936.783081 597.373352,938.803711 597.317139,941.240723 
M532.422302,856.754089 
	C526.830261,855.319885 523.075500,856.890991 521.435852,861.351135 
	C519.987549,865.290894 521.742859,869.522278 525.694641,871.334717 
	C529.554260,873.105042 532.811890,872.101868 535.451172,868.890991 
	C537.805054,866.027161 537.761292,859.797180 532.422302,856.754089 
z"/>
<path fill="#F8F8F8" opacity="1.000000" stroke="none" 
	d="
M438.337280,564.662476 
	C431.325043,557.067322 424.610352,549.676514 417.799286,542.375610 
	C415.843445,540.279114 415.761719,538.418945 416.789673,535.688232 
	C422.878235,519.514282 435.340759,508.383575 447.248535,495.967072 
	C452.631622,502.567474 457.726837,508.814911 462.989532,515.267700 
	C457.736328,522.482178 452.669342,529.661804 447.342010,536.642761 
	C445.355499,539.245850 444.796021,541.536316 445.655396,544.833496 
	C448.414215,555.418701 450.721161,566.121643 452.373474,577.427734 
	C447.781708,573.252136 443.189972,569.076538 438.337280,564.662476 
z"/>
<path fill="#F1F1F1" opacity="1.000000" stroke="none" 
	d="
M765.590210,527.315369 
	C754.622864,532.486938 744.017517,537.516479 733.412170,542.546082 
	C748.809204,527.503418 765.311829,513.982117 785.849304,506.620880 
	C789.648376,505.259155 794.474548,505.748932 798.604370,506.541992 
	C806.414062,508.041656 814.129211,510.165558 821.733582,512.515625 
	C823.784546,513.149414 826.141418,515.198669 826.909668,517.164246 
	C830.382141,526.048401 833.335327,535.135498 835.755310,544.362610 
	C831.702087,538.524719 827.951660,532.437866 823.453247,526.965881 
	C821.532776,524.629761 818.240784,522.795654 815.247986,522.069885 
	C798.277039,517.954651 781.902283,520.788879 765.590210,527.315369 
z"/>
<path fill="#EE237C" opacity="1.000000" stroke="none" 
	d="
M1023.126709,790.198914 
	C1022.492249,766.171936 1020.104492,742.354919 1014.002197,719.045105 
	C1009.916260,703.437134 1002.185669,689.442322 993.930664,675.738708 
	C991.184570,671.180237 988.277588,666.699768 985.141174,662.404907 
	C983.941895,660.762695 981.894714,659.739685 979.800720,658.094055 
	C980.209717,653.523254 981.108276,647.781921 981.159302,642.033081 
	C981.271667,629.339111 976.094849,618.453003 968.724792,608.450928 
	C965.763428,604.432068 962.799011,600.415405 959.805664,596.013062 
	C977.098816,611.126648 990.404236,628.305481 984.464539,653.736389 
	C984.163391,655.025513 984.797974,656.982117 985.693787,658.034790 
	C999.598511,674.374084 1010.979675,692.411072 1019.850769,711.821838 
	C1023.213440,719.179810 1023.958008,727.869690 1025.127563,736.062195 
	C1026.795288,747.743469 1028.194580,759.502991 1028.807129,771.275940 
	C1029.061279,776.159729 1026.987305,781.164673 1025.679688,786.666504 
	C1024.633667,788.211975 1023.880188,789.205444 1023.126709,790.198914 
z"/>
<path fill="#ED1E7A" opacity="1.000000" stroke="none" 
	d="
M998.917664,507.419281 
	C1001.314209,501.598694 1003.321411,495.844543 1006.102966,490.492798 
	C1009.357300,484.231537 1008.155212,479.147766 1004.041687,473.799622 
	C998.994629,467.237976 994.511536,460.242554 989.755615,453.042664 
	C997.652771,462.034485 1005.628906,471.377258 1013.425232,480.867767 
	C1014.178650,481.784943 1014.218750,483.714325 1013.909546,485.011627 
	C1010.982788,497.290375 1007.926514,509.538452 1004.845886,521.779846 
	C1004.571716,522.869385 1004.014099,523.963562 1003.333984,524.863586 
	C992.603882,539.061890 981.839050,553.234131 971.049683,567.387512 
	C970.496216,568.113464 969.649536,568.615906 968.016418,568.626221 
	C978.301208,548.305359 988.585999,527.984558 998.917664,507.419281 
z"/>
<path fill="#F5F5F5" opacity="1.000000" stroke="none" 
	d="
M789.026123,567.937744 
	C789.814026,569.025330 790.401978,569.794739 791.551758,571.299438 
	C775.848877,567.551636 762.705750,561.403992 753.213318,548.043762 
	C762.922363,540.353455 773.708801,536.587952 786.201904,535.448547 
	C781.601013,546.997559 781.886108,557.636841 789.026123,567.937744 
z"/>
<path fill="#EAEAEA" opacity="1.000000" stroke="none" 
	d="
M818.853882,558.972778 
	C818.963074,557.787842 819.025391,556.965271 819.087769,556.142700 
	C819.369690,556.020813 819.651550,555.898987 819.933472,555.777161 
	C822.890015,562.151367 825.846558,568.525574 829.069763,575.474731 
	C823.141052,574.870422 817.695679,574.315430 812.617249,573.797791 
	C814.697937,568.936096 816.752502,564.135620 818.853882,558.972778 
z"/>
<path fill="#EAEAEA" opacity="1.000000" stroke="none" 
	d="
M801.353760,548.752747 
	C800.695984,548.505493 800.378967,548.381958 800.110291,548.190552 
	C797.272461,546.168640 796.158936,543.317200 798.040649,540.434021 
	C798.955078,539.032898 802.178650,537.541504 803.148254,538.119263 
	C804.950684,539.193237 806.677124,541.640503 806.967041,543.720642 
	C807.423340,546.994690 805.164062,548.854004 801.353760,548.752747 
z"/>
<path fill="#0C0B0B" opacity="1.000000" stroke="none" 
	d="
M1022.882568,790.515869 
	C1023.880188,789.205444 1024.633667,788.211975 1025.639893,787.032349 
	C1026.696533,789.449707 1029.723267,792.642273 1025.553467,794.385803 
	C1022.682739,795.586243 1018.616089,796.587463 1017.013306,791.358643 
	C1018.880737,790.923340 1020.759583,790.878113 1022.882568,790.515869 
z"/>
<path fill="#0C0B0B" opacity="1.000000" stroke="none" 
	d="
M1021.781250,805.651367 
	C1021.822876,805.852112 1021.333191,805.897888 1021.333191,805.897888 
	C1021.333191,805.897888 1021.049988,805.495544 1021.060852,805.248840 
	C1021.356262,805.059448 1021.578857,805.208923 1021.781250,805.651367 
z"/>
<path fill="#060606" opacity="1.000000" stroke="none" 
	d="
M936.875854,663.078186 
	C929.325317,657.571716 922.054443,652.296082 914.800903,646.996704 
	C911.560974,644.629639 908.401306,643.876343 904.746643,646.427673 
	C903.721191,647.143555 901.566345,647.084351 900.324707,646.516541 
	C888.745300,641.221802 879.365234,633.183533 871.422974,622.773926 
	C872.355713,621.297119 873.242065,619.758728 874.255981,618.309509 
	C883.846863,604.601501 890.081482,602.971802 904.730042,610.839172 
	C916.245667,617.023865 927.138123,624.078796 933.696960,636.000427 
	C937.901184,643.642395 939.716003,651.842407 938.747253,660.551880 
	C938.640137,661.514587 937.710632,662.385803 936.875854,663.078186 
z"/>
<path fill="#0C0B0B" opacity="1.000000" stroke="none" 
	d="
M948.452026,628.604248 
	C951.129578,624.390137 953.502930,620.424988 956.278320,616.764832 
	C958.125549,614.328796 960.443054,614.749268 962.758240,616.667969 
	C971.718567,624.093628 973.525574,642.284851 965.928223,650.916138 
	C965.073364,651.887390 963.270996,652.024597 960.733948,651.793335 
	C959.195679,659.007385 957.657349,666.221497 956.173035,673.182373 
	C950.198059,666.921936 945.314636,640.309692 948.452026,628.604248 
z"/>
<path fill="#0C0B0B" opacity="1.000000" stroke="none" 
	d="
M465.149872,328.799530 
	C462.671509,334.105347 458.602020,336.062622 455.504791,333.166779 
	C453.821167,331.592682 452.486877,328.002167 453.141907,326.036560 
	C453.783569,324.111115 457.089050,322.042786 459.332764,321.914429 
	C463.044281,321.702118 465.311279,324.332306 465.149872,328.799530 
z"/>
<path fill="#010000" opacity="1.000000" stroke="none" 
	d="
M912.134277,964.155396 
	C911.930969,964.254395 911.478699,964.118103 911.188171,963.737305 
	C911.528442,963.635254 911.706909,963.777710 912.134277,964.155396 
z"/>
<path fill="#0F0307" opacity="1.000000" stroke="none" 
	d="
M532.774536,856.929138 
	C537.761292,859.797180 537.805054,866.027161 535.451172,868.890991 
	C532.811890,872.101868 529.554260,873.105042 525.694641,871.334717 
	C521.742859,869.522278 519.987549,865.290894 521.435852,861.351135 
	C523.075500,856.890991 526.830261,855.319885 532.774536,856.929138 
z"/>
</svg>
